<svg xmlns="http://www.w3.org/2000/svg" width="260" height="80" viewBox="0 0 260 80">
  <rect width="260" height="80" fill="none" />
  <g transform="translate(20,12)">
    <g transform="translate(10,10)">
      <g fill="#3FA110">
        <path d="M20 0 L30 17 L20 24 L10 17 Z" transform="rotate(0 20 17)" />
        <path d="M20 0 L30 17 L20 24 L10 17 Z" transform="rotate(45 20 17)" />
        <path d="M20 0 L30 17 L20 24 L10 17 Z" transform="rotate(90 20 17)" />
        <path d="M20 0 L30 17 L20 24 L10 17 Z" transform="rotate(135 20 17)" />
        <path d="M20 0 L30 17 L20 24 L10 17 Z" transform="rotate(180 20 17)" />
        <path d="M20 0 L30 17 L20 24 L10 17 Z" transform="rotate(225 20 17)" />
        <path d="M20 0 L30 17 L20 24 L10 17 Z" transform="rotate(270 20 17)" />
        <path d="M20 0 L30 17 L20 24 L10 17 Z" transform="rotate(315 20 17)" />
        <circle cx="20" cy="17" r="6" fill="#3FA110" />
      </g>
    </g>
    <text x="70" y="38" font-family="'Montserrat','Helvetica Neue','Arial',sans-serif" font-weight="600" font-size="38" fill="#3FA110">Sicredi</text>
  </g>
</svg>
