<?xml version="1.0" encoding="UTF-8" standalone="no"?>
<!-- Created with Inkscape (http://www.inkscape.org/) -->

<svg
   xmlns:dc="http://purl.org/dc/elements/1.1/"
   xmlns:cc="http://creativecommons.org/ns#"
   xmlns:rdf="http://www.w3.org/1999/02/22-rdf-syntax-ns#"
   xmlns:svg="http://www.w3.org/2000/svg"
   xmlns="http://www.w3.org/2000/svg"
   version="1.1"
   width="674.27429"
   height="99.081497"
   id="svg2">
  <defs
     id="defs4">
 <style
   type="text/css"
   id="style2989" />

  </defs>
  <metadata
     id="metadata7">
    <rdf:RDF>
      <cc:Work
         rdf:about="">
        <dc:format>image/svg+xml</dc:format>
        <dc:type
           rdf:resource="http://purl.org/dc/dcmitype/StillImage" />
        <dc:title></dc:title>
      </cc:Work>
    </rdf:RDF>
  </metadata>
  <g
     transform="translate(-40.0057,-411.39286)"
     id="layer1">
    <g
       transform="matrix(3.543307,0,0,3.543307,2.956882,-2.8870468)"
       id="g3030"
       style="fill-rule:evenodd">
      <g
         id="Camada_x0020_1">
  <metadata
   id="CorelCorpID_0Corel-Layer" />

  <path
   d="m 10.456,137.749 3.1319,0 1.1037,-3.1333 5.2598,0 1.0644,3.1333 3.211,0 -5.2602,-14.0668 -3.1717,0 -5.3389,14.0668 z m 6.8754,-10.5992 0.0394,0 1.7731,5.1613 -3.6444,0 1.8319,-5.1613 z"
   id="path2993"
   style="fill:#c9403d" />

  <polygon
   points="37.7047,127.78 37.7047,137.749 40.6008,137.749 40.6008,123.682 36.2467,123.682 33.1342,133.356 33.0946,133.356 29.8047,123.682 25.4508,123.682 25.4508,137.749 28.3467,137.749 28.3467,127.878 28.3862,127.878 31.8339,137.749 34.2177,137.749 37.6654,127.78 "
   id="polygon2995"
   style="fill:#c9403d" />

  <polygon
   points="46.421,129.297 46.421,126.282 53.8484,126.282 53.8484,123.682 43.3277,123.682 43.3277,137.749 54.0054,137.749 54.0054,135.148 46.421,135.148 46.421,131.701 53.2377,131.701 53.2377,129.297 "
   id="polygon2997"
   style="fill:#c9403d" />

  <path
   d="m 56.1005,137.749 3.0928,0 0,-5.4968 3.0932,0 c 1.5564,0 2.1279,0.6501 2.3442,2.1272 0.1577,1.1233 0.1185,2.4827 0.4928,3.3696 l 3.0928,0 c -0.5514,-0.7884 -0.5316,-2.4436 -0.5905,-3.3305 -0.0988,-1.4175 -0.5324,-2.8947 -2.049,-3.2898 l 0,-0.039 c 1.5565,-0.6305 2.226,-1.8714 2.226,-3.5263 0,-2.1283 -1.5956,-3.8812 -4.1179,-3.8812 l -7.5844,0 0,14.0668 z m 3.0928,-11.6632 3.3888,0 c 1.379,0 2.1276,0.5907 2.1276,1.9506 0,1.4177 -0.7486,2.0087 -2.1276,2.0087 l -3.3888,0 0,-3.9593 z"
   id="path2999"
   style="fill:#c9403d" />

  <polygon
   points="70.3298,123.682 70.3298,137.749 73.4226,137.749 73.4226,123.682 "
   id="polygon3001"
   style="fill:#c9403d" />

  <path
   d="m 88.5152,128.411 c -0.3743,-3.2508 -2.975,-5.0636 -6.0678,-5.0636 -4.3536,0 -6.9148,3.251 -6.9148,7.4266 0,4.0592 2.5611,7.3091 6.9148,7.3091 3.4477,0 5.8709,-2.2458 6.1859,-5.7524 l -2.9943,0 c -0.2364,1.8523 -1.3004,3.1519 -3.1916,3.1519 -2.7778,0 -3.822,-2.364 -3.822,-4.7086 0,-2.462 1.0442,-4.8264 3.822,-4.8264 1.5367,0 2.8762,1.0644 3.073,2.4634 l 2.9948,0 z"
   id="path3003"
   style="fill:#c9403d" />

  <path
   d="m 89.2504,137.749 3.1319,0 1.1035,-3.1333 5.2603,0 1.064,3.1333 3.2113,0 -5.2603,-14.0668 -3.1718,0 -5.3389,14.0668 z m 6.8756,-10.5992 0.0392,0 1.7734,5.1613 -3.6449,0 1.8323,-5.1613 z"
   id="path3005"
   style="fill:#c9403d" />

  <polygon
   points="113.229,123.682 113.229,133.118 113.189,133.118 107.319,123.682 104.245,123.682 104.245,137.749 107.141,137.749 107.141,128.332 107.18,128.332 113.032,137.749 116.125,137.749 116.125,123.682 "
   id="polygon3007"
   style="fill:#c9403d" />

  <path
   d="m 117.353,137.749 3.1322,0 1.1032,-3.1333 5.2599,0 1.0643,3.1333 3.2107,0 -5.2596,-14.0668 -3.1718,0 -5.3389,14.0668 z m 6.8753,-10.5992 0.0394,0 1.7731,5.1613 -3.6449,0 1.8324,-5.1613 z"
   id="path3009"
   style="fill:#c9403d" />

  <path
   d="m 131.461,133.079 c -0.0398,3.4674 2.8762,5.0036 5.9891,5.0036 3.8221,0 5.8512,-1.9301 5.8512,-4.511 0,-3.192 -3.1528,-3.8413 -4.1769,-4.0985 -3.526,-0.9062 -4.1963,-1.0431 -4.1963,-2.127 0,-1.1823 1.143,-1.5957 2.1276,-1.5957 1.4775,0 2.6793,0.433 2.7778,2.1275 l 2.9951,0 c 0,-3.2508 -2.6988,-4.531 -5.6346,-4.531 -2.5413,0 -5.2606,1.3786 -5.2606,4.255 0,2.6407 2.1085,3.4481 4.1966,3.9996 2.0684,0.5516 4.1769,0.8074 4.1769,2.325 10e-5,1.4383 -1.6552,1.7528 -2.739,1.7528 -1.6548,0 -3.1122,-0.7291 -3.1122,-2.6003 l -2.9947,0 z"
   id="path3011"
   style="fill:#c9403d" />

  <polygon
   points="145.365,134.715 145.365,137.749 148.458,137.749 148.458,134.715 "
   id="polygon3013"
   style="fill:#c9403d" />

  <polygon
   points="11.0117,120.232 11.0117,116.919 143.134,116.919 143.134,120.232 "
   id="polygon3015"
   style="fill:#c9403d" />

  <polygon
   points="11.0117,144.882 11.0117,141.569 143.134,141.569 143.134,144.882 "
   id="polygon3017"
   style="fill:#c9403d" />

  <path
   d="m 163.028,128.592 c -0.3012,-3.472 -3.0896,-5.1129 -6.3715,-5.1129 -4.6482,0 -6.972,3.3356 -6.972,7.6014 10e-5,4.156 2.4339,7.3004 6.863,7.3004 3.6368,0 5.9062,-2.0235 6.4805,-5.6879 l -3.1174,0 c -0.3006,2.0237 -1.5583,3.2264 -3.3631,3.2264 -2.7065,0 -3.7455,-2.4877 -3.7455,-4.8389 1e-4,-4.2929 2.2691,-5.1411 3.8824,-5.1411 1.7222,0 2.9802,0.9297 3.2261,2.6526 l 3.1175,0 z"
   id="path3019"
   style="fill:#c9403d" />

  <path
   d="m 171.355,135.919 c -2.7891,0 -4.0189,-2.5422 -4.0189,-5.0035 0,-2.4331 1.2298,-4.9765 4.0188,-4.9765 2.7895,0 4.0199,2.5434 4.0199,4.9765 0,2.4613 -1.2305,5.0035 -4.0198,5.0035 z m 0,2.4615 c 4.5395,0 7.1366,-3.1171 7.1366,-7.465 1e-4,-4.3202 -2.5971,-7.4368 -7.1367,-7.4368 -4.5384,0 -7.1363,3.1166 -7.1363,7.4368 0,4.3478 2.5978,7.465 7.1364,7.465 z"
   id="path3021"
   style="fill:#c9403d" />

  <path
   d="m 180.245,137.998 3.1164,0 0,-8.3947 c 0,-2.3511 1.4767,-3.6642 3.0899,-3.6642 1.8864,0 2.4885,1.0401 2.4885,2.9814 l 1e-4,9.0775 3.1172,0 0,-8.2854 c 0,-2.3784 0.9019,-3.7735 3.007,-3.7735 2.4341,0 2.5703,1.5588 2.5703,3.8007 l 1e-4,8.2582 3.1167,0 0,-9.762 c 0,-3.4449 -1.7498,-4.7572 -4.73,-4.7572 -2.0507,0 -3.3906,0.9025 -4.4288,2.3511 -0.6297,-1.6128 -2.243,-2.3511 -3.9656,-2.3511 -2.2419,0 -3.4174,0.9569 -4.3473,2.3511 l -0.0818,0 0,-1.9685 -2.9527,0 0,14.1366 z"
   id="path3023"
   style="fill:#c9403d" />

 </g>
    </g>
  </g>
</svg>
